<mxfile host="app.diagrams.net" modified="2020-08-14T06:27:50.517Z" agent="5.0 (Windows NT 10.0; Win64; x64) AppleWebKit/537.36 (KHTML, like Gecko) Chrome/84.0.4147.125 Safari/537.36" etag="Rdd7QnFUxYzo4eZARhDc" version="13.6.2" type="github">
  <diagram id="IVRoTZSTOOcRmXtd3SFh" name="Page-1">
    <mxGraphModel dx="2249" dy="762" grid="1" gridSize="10" guides="1" tooltips="1" connect="1" arrows="1" fold="1" page="1" pageScale="1" pageWidth="827" pageHeight="1169" math="0" shadow="0">
      <root>
        <mxCell id="0" />
        <mxCell id="1" parent="0" />
        <mxCell id="q0oahWR5_wieYY4KB26Z-1" value="&lt;font style=&quot;font-size: 36px&quot;&gt;gateServer&lt;/font&gt;" style="rounded=0;whiteSpace=wrap;html=1;" vertex="1" parent="1">
          <mxGeometry x="44" y="130" width="214" height="60" as="geometry" />
        </mxCell>
        <mxCell id="q0oahWR5_wieYY4KB26Z-2" value="&lt;font style=&quot;font-size: 36px&quot;&gt;GameServer&lt;/font&gt;" style="rounded=0;whiteSpace=wrap;html=1;" vertex="1" parent="1">
          <mxGeometry x="194" y="270" width="220" height="60" as="geometry" />
        </mxCell>
        <mxCell id="q0oahWR5_wieYY4KB26Z-3" value="" style="endArrow=classic;startArrow=classic;html=1;exitX=0.5;exitY=0;exitDx=0;exitDy=0;entryX=0.5;entryY=1;entryDx=0;entryDy=0;" edge="1" parent="1" source="q0oahWR5_wieYY4KB26Z-2" target="q0oahWR5_wieYY4KB26Z-1">
          <mxGeometry width="50" height="50" relative="1" as="geometry">
            <mxPoint x="234" y="230" as="sourcePoint" />
            <mxPoint x="284" y="180" as="targetPoint" />
          </mxGeometry>
        </mxCell>
        <mxCell id="q0oahWR5_wieYY4KB26Z-12" value="&lt;font style=&quot;font-size: 24px&quot;&gt;RPC&lt;/font&gt;" style="edgeLabel;html=1;align=center;verticalAlign=middle;resizable=0;points=[];" vertex="1" connectable="0" parent="q0oahWR5_wieYY4KB26Z-3">
          <mxGeometry x="0.2636" y="3" relative="1" as="geometry">
            <mxPoint x="37.98" y="10" as="offset" />
          </mxGeometry>
        </mxCell>
        <mxCell id="q0oahWR5_wieYY4KB26Z-4" value="&lt;font style=&quot;font-size: 36px&quot;&gt;LobbyServer&lt;/font&gt;" style="rounded=0;whiteSpace=wrap;html=1;" vertex="1" parent="1">
          <mxGeometry x="-56" y="270" width="220" height="60" as="geometry" />
        </mxCell>
        <mxCell id="q0oahWR5_wieYY4KB26Z-5" value="" style="endArrow=classic;startArrow=classic;html=1;entryX=0.5;entryY=1;entryDx=0;entryDy=0;exitX=0.5;exitY=0;exitDx=0;exitDy=0;" edge="1" parent="1" source="q0oahWR5_wieYY4KB26Z-4" target="q0oahWR5_wieYY4KB26Z-1">
          <mxGeometry width="50" height="50" relative="1" as="geometry">
            <mxPoint x="234" y="230" as="sourcePoint" />
            <mxPoint x="284" y="180" as="targetPoint" />
          </mxGeometry>
        </mxCell>
        <mxCell id="q0oahWR5_wieYY4KB26Z-6" value="&lt;font style=&quot;font-size: 36px&quot;&gt;Client&lt;/font&gt;" style="rounded=0;whiteSpace=wrap;html=1;" vertex="1" parent="1">
          <mxGeometry x="34" width="120" height="60" as="geometry" />
        </mxCell>
        <mxCell id="q0oahWR5_wieYY4KB26Z-7" value="&lt;font style=&quot;font-size: 36px&quot;&gt;Client&lt;/font&gt;" style="rounded=0;whiteSpace=wrap;html=1;" vertex="1" parent="1">
          <mxGeometry x="44" y="10" width="120" height="60" as="geometry" />
        </mxCell>
        <mxCell id="q0oahWR5_wieYY4KB26Z-8" value="&lt;font style=&quot;font-size: 36px&quot;&gt;Client&lt;/font&gt;" style="rounded=0;whiteSpace=wrap;html=1;" vertex="1" parent="1">
          <mxGeometry x="54" y="20" width="120" height="60" as="geometry" />
        </mxCell>
        <mxCell id="q0oahWR5_wieYY4KB26Z-10" value="" style="endArrow=classic;startArrow=classic;html=1;exitX=0.5;exitY=0;exitDx=0;exitDy=0;entryX=0.5;entryY=1;entryDx=0;entryDy=0;" edge="1" parent="1" source="q0oahWR5_wieYY4KB26Z-1" target="q0oahWR5_wieYY4KB26Z-8">
          <mxGeometry width="50" height="50" relative="1" as="geometry">
            <mxPoint x="84" y="190" as="sourcePoint" />
            <mxPoint x="114" y="90" as="targetPoint" />
          </mxGeometry>
        </mxCell>
        <mxCell id="q0oahWR5_wieYY4KB26Z-13" value="&lt;font style=&quot;font-size: 24px&quot;&gt;RPC&lt;/font&gt;" style="edgeLabel;html=1;align=center;verticalAlign=middle;resizable=0;points=[];" vertex="1" connectable="0" parent="1">
          <mxGeometry x="103.99724514529044" y="232.1525366285539" as="geometry" />
        </mxCell>
        <mxCell id="q0oahWR5_wieYY4KB26Z-14" value="&lt;font style=&quot;font-size: 24px&quot;&gt;RPC&lt;/font&gt;" style="edgeLabel;html=1;align=center;verticalAlign=middle;resizable=0;points=[];" vertex="1" connectable="0" parent="1">
          <mxGeometry x="133.99724514529044" y="100.00253662855391" as="geometry" />
        </mxCell>
        <mxCell id="q0oahWR5_wieYY4KB26Z-15" value="&lt;font style=&quot;font-size: 36px&quot;&gt;DBHelper&lt;/font&gt;" style="rounded=0;whiteSpace=wrap;html=1;" vertex="1" parent="1">
          <mxGeometry x="80" y="410" width="190" height="60" as="geometry" />
        </mxCell>
        <mxCell id="q0oahWR5_wieYY4KB26Z-20" value="&lt;font style=&quot;font-size: 36px&quot;&gt;DB&lt;/font&gt;" style="rounded=0;whiteSpace=wrap;html=1;" vertex="1" parent="1">
          <mxGeometry x="104" y="520" width="120" height="60" as="geometry" />
        </mxCell>
        <mxCell id="q0oahWR5_wieYY4KB26Z-25" value="服务号" style="rounded=0;whiteSpace=wrap;html=1;" vertex="1" parent="1">
          <mxGeometry x="510" y="70" width="66" height="30" as="geometry" />
        </mxCell>
        <mxCell id="q0oahWR5_wieYY4KB26Z-27" value="命令号" style="rounded=0;whiteSpace=wrap;html=1;" vertex="1" parent="1">
          <mxGeometry x="576" y="70" width="66" height="30" as="geometry" />
        </mxCell>
        <mxCell id="q0oahWR5_wieYY4KB26Z-28" value="UUID" style="rounded=0;whiteSpace=wrap;html=1;" vertex="1" parent="1">
          <mxGeometry x="642" y="70" width="66" height="30" as="geometry" />
        </mxCell>
        <mxCell id="q0oahWR5_wieYY4KB26Z-29" value="DATA" style="rounded=0;whiteSpace=wrap;html=1;" vertex="1" parent="1">
          <mxGeometry x="708" y="70" width="66" height="30" as="geometry" />
        </mxCell>
        <mxCell id="q0oahWR5_wieYY4KB26Z-30" value="NOTE" style="rounded=0;whiteSpace=wrap;html=1;" vertex="1" parent="1">
          <mxGeometry x="774" y="70" width="66" height="30" as="geometry" />
        </mxCell>
        <mxCell id="q0oahWR5_wieYY4KB26Z-31" value="SENDER" style="rounded=0;whiteSpace=wrap;html=1;" vertex="1" parent="1">
          <mxGeometry x="840" y="70" width="66" height="30" as="geometry" />
        </mxCell>
        <mxCell id="q0oahWR5_wieYY4KB26Z-34" value="" style="endArrow=classic;html=1;strokeColor=#000000;exitX=0.5;exitY=1;exitDx=0;exitDy=0;entryX=0.5;entryY=0;entryDx=0;entryDy=0;" edge="1" parent="1" source="q0oahWR5_wieYY4KB26Z-4" target="q0oahWR5_wieYY4KB26Z-15">
          <mxGeometry width="50" height="50" relative="1" as="geometry">
            <mxPoint x="250" y="380" as="sourcePoint" />
            <mxPoint x="300" y="330" as="targetPoint" />
          </mxGeometry>
        </mxCell>
        <mxCell id="q0oahWR5_wieYY4KB26Z-35" value="" style="endArrow=classic;html=1;strokeColor=#000000;exitX=0.5;exitY=1;exitDx=0;exitDy=0;entryX=0.5;entryY=0;entryDx=0;entryDy=0;" edge="1" parent="1" source="q0oahWR5_wieYY4KB26Z-2" target="q0oahWR5_wieYY4KB26Z-15">
          <mxGeometry width="50" height="50" relative="1" as="geometry">
            <mxPoint x="460" y="360" as="sourcePoint" />
            <mxPoint x="510" y="310" as="targetPoint" />
          </mxGeometry>
        </mxCell>
        <mxCell id="q0oahWR5_wieYY4KB26Z-36" value="&lt;font style=&quot;font-size: 24px&quot;&gt;访问&lt;/font&gt;" style="edgeLabel;html=1;align=center;verticalAlign=middle;resizable=0;points=[];" vertex="1" connectable="0" parent="1">
          <mxGeometry x="250.0003293330003" y="379.99687215946204" as="geometry">
            <mxPoint x="-136" y="-9" as="offset" />
          </mxGeometry>
        </mxCell>
        <mxCell id="q0oahWR5_wieYY4KB26Z-37" value="&lt;font style=&quot;font-size: 24px&quot;&gt;访问&lt;/font&gt;" style="edgeLabel;html=1;align=center;verticalAlign=middle;resizable=0;points=[];" vertex="1" connectable="0" parent="1">
          <mxGeometry x="370.0003293330003" y="379.99687215946204" as="geometry">
            <mxPoint x="-136" y="-9" as="offset" />
          </mxGeometry>
        </mxCell>
        <mxCell id="q0oahWR5_wieYY4KB26Z-38" value="" style="endArrow=classic;html=1;strokeColor=#000000;exitX=0.5;exitY=1;exitDx=0;exitDy=0;entryX=0.5;entryY=0;entryDx=0;entryDy=0;" edge="1" parent="1" source="q0oahWR5_wieYY4KB26Z-39" target="q0oahWR5_wieYY4KB26Z-20">
          <mxGeometry width="50" height="50" relative="1" as="geometry">
            <mxPoint x="460" y="350" as="sourcePoint" />
            <mxPoint x="450" y="430" as="targetPoint" />
          </mxGeometry>
        </mxCell>
        <mxCell id="q0oahWR5_wieYY4KB26Z-39" value="&lt;font style=&quot;font-size: 24px&quot;&gt;封装&lt;/font&gt;" style="text;html=1;strokeColor=none;fillColor=none;align=center;verticalAlign=middle;whiteSpace=wrap;rounded=0;" vertex="1" parent="1">
          <mxGeometry x="120" y="490" width="90" height="20" as="geometry" />
        </mxCell>
        <mxCell id="q0oahWR5_wieYY4KB26Z-40" value="" style="endArrow=classic;html=1;strokeColor=#000000;exitX=0.5;exitY=1;exitDx=0;exitDy=0;entryX=0.5;entryY=0;entryDx=0;entryDy=0;" edge="1" parent="1" source="q0oahWR5_wieYY4KB26Z-15" target="q0oahWR5_wieYY4KB26Z-39">
          <mxGeometry width="50" height="50" relative="1" as="geometry">
            <mxPoint x="175" y="470" as="sourcePoint" />
            <mxPoint x="164" y="520" as="targetPoint" />
          </mxGeometry>
        </mxCell>
        <mxCell id="q0oahWR5_wieYY4KB26Z-41" value="&lt;font style=&quot;font-size: 24px&quot;&gt;SERVICE&lt;/font&gt;" style="rounded=0;whiteSpace=wrap;html=1;" vertex="1" parent="1">
          <mxGeometry x="630" y="270" width="120" height="60" as="geometry" />
        </mxCell>
        <mxCell id="q0oahWR5_wieYY4KB26Z-42" value="" style="endArrow=classic;html=1;strokeColor=#000000;exitX=1;exitY=0.5;exitDx=0;exitDy=0;entryX=0;entryY=0.5;entryDx=0;entryDy=0;" edge="1" parent="1" source="q0oahWR5_wieYY4KB26Z-2" target="q0oahWR5_wieYY4KB26Z-41">
          <mxGeometry width="50" height="50" relative="1" as="geometry">
            <mxPoint x="460" y="300" as="sourcePoint" />
            <mxPoint x="450" y="290" as="targetPoint" />
          </mxGeometry>
        </mxCell>
        <mxCell id="q0oahWR5_wieYY4KB26Z-43" value="&lt;font style=&quot;font-size: 24px&quot;&gt;解析并处理消息&lt;/font&gt;" style="text;html=1;strokeColor=none;fillColor=none;align=center;verticalAlign=middle;whiteSpace=wrap;rounded=0;" vertex="1" parent="1">
          <mxGeometry x="410" y="280" width="210" height="20" as="geometry" />
        </mxCell>
        <mxCell id="q0oahWR5_wieYY4KB26Z-44" value="&lt;font style=&quot;font-size: 24px&quot;&gt;GameManager&lt;/font&gt;" style="rounded=0;whiteSpace=wrap;html=1;" vertex="1" parent="1">
          <mxGeometry x="432" y="400" width="210" height="60" as="geometry" />
        </mxCell>
        <mxCell id="q0oahWR5_wieYY4KB26Z-45" value="" style="endArrow=classic;html=1;strokeColor=#000000;exitX=1;exitY=0.75;exitDx=0;exitDy=0;entryX=0.5;entryY=0;entryDx=0;entryDy=0;" edge="1" parent="1" source="q0oahWR5_wieYY4KB26Z-2" target="q0oahWR5_wieYY4KB26Z-44">
          <mxGeometry width="50" height="50" relative="1" as="geometry">
            <mxPoint x="460" y="260" as="sourcePoint" />
            <mxPoint x="510" y="210" as="targetPoint" />
          </mxGeometry>
        </mxCell>
        <mxCell id="q0oahWR5_wieYY4KB26Z-47" value="&lt;font style=&quot;font-size: 24px&quot;&gt;单例&lt;/font&gt;" style="edgeLabel;html=1;align=center;verticalAlign=middle;resizable=0;points=[];" vertex="1" connectable="0" parent="q0oahWR5_wieYY4KB26Z-45">
          <mxGeometry x="-0.2402" y="4" relative="1" as="geometry">
            <mxPoint as="offset" />
          </mxGeometry>
        </mxCell>
        <mxCell id="q0oahWR5_wieYY4KB26Z-46" value="" style="endArrow=classic;html=1;strokeColor=#000000;exitX=0.5;exitY=1;exitDx=0;exitDy=0;entryX=0.5;entryY=0;entryDx=0;entryDy=0;" edge="1" parent="1" source="q0oahWR5_wieYY4KB26Z-41" target="q0oahWR5_wieYY4KB26Z-44">
          <mxGeometry width="50" height="50" relative="1" as="geometry">
            <mxPoint x="424" y="325" as="sourcePoint" />
            <mxPoint x="547" y="410" as="targetPoint" />
          </mxGeometry>
        </mxCell>
        <mxCell id="q0oahWR5_wieYY4KB26Z-49" value="&lt;font style=&quot;font-size: 24px&quot;&gt;处理&lt;/font&gt;" style="text;html=1;strokeColor=none;fillColor=none;align=center;verticalAlign=middle;whiteSpace=wrap;rounded=0;" vertex="1" parent="1">
          <mxGeometry x="550" y="350" width="150" height="20" as="geometry" />
        </mxCell>
        <mxCell id="q0oahWR5_wieYY4KB26Z-52" value="&lt;font style=&quot;font-size: 36px&quot;&gt;Client&lt;/font&gt;" style="rounded=0;whiteSpace=wrap;html=1;" vertex="1" parent="1">
          <mxGeometry x="480" y="520" width="120" height="60" as="geometry" />
        </mxCell>
        <mxCell id="q0oahWR5_wieYY4KB26Z-53" value="&lt;font style=&quot;font-size: 36px&quot;&gt;Client&lt;/font&gt;" style="rounded=0;whiteSpace=wrap;html=1;" vertex="1" parent="1">
          <mxGeometry x="490" y="530" width="120" height="60" as="geometry" />
        </mxCell>
        <mxCell id="q0oahWR5_wieYY4KB26Z-54" value="&lt;font style=&quot;font-size: 36px&quot;&gt;World&lt;/font&gt;" style="rounded=0;whiteSpace=wrap;html=1;" vertex="1" parent="1">
          <mxGeometry x="500" y="540" width="120" height="60" as="geometry" />
        </mxCell>
        <mxCell id="q0oahWR5_wieYY4KB26Z-55" value="" style="endArrow=classic;html=1;strokeColor=#000000;exitX=0.5;exitY=1;exitDx=0;exitDy=0;entryX=0.5;entryY=0;entryDx=0;entryDy=0;" edge="1" parent="1" source="q0oahWR5_wieYY4KB26Z-44" target="q0oahWR5_wieYY4KB26Z-52">
          <mxGeometry width="50" height="50" relative="1" as="geometry">
            <mxPoint x="460" y="530" as="sourcePoint" />
            <mxPoint x="510" y="480" as="targetPoint" />
          </mxGeometry>
        </mxCell>
        <mxCell id="q0oahWR5_wieYY4KB26Z-56" value="&lt;font style=&quot;font-size: 24px&quot;&gt;管理&lt;/font&gt;" style="edgeLabel;html=1;align=center;verticalAlign=middle;resizable=0;points=[];" vertex="1" connectable="0" parent="q0oahWR5_wieYY4KB26Z-55">
          <mxGeometry x="-0.3948" y="3" relative="1" as="geometry">
            <mxPoint x="-3.9" y="12.17" as="offset" />
          </mxGeometry>
        </mxCell>
        <mxCell id="q0oahWR5_wieYY4KB26Z-57" value="&lt;font style=&quot;font-size: 24px&quot;&gt;EntityManager&lt;/font&gt;" style="rounded=0;whiteSpace=wrap;html=1;" vertex="1" parent="1">
          <mxGeometry x="330" y="660" width="200" height="60" as="geometry" />
        </mxCell>
        <mxCell id="q0oahWR5_wieYY4KB26Z-58" value="&lt;font style=&quot;font-size: 24px&quot;&gt;SystemManager&lt;/font&gt;" style="rounded=0;whiteSpace=wrap;html=1;" vertex="1" parent="1">
          <mxGeometry x="575" y="660" width="200" height="60" as="geometry" />
        </mxCell>
        <mxCell id="q0oahWR5_wieYY4KB26Z-59" value="" style="endArrow=classic;html=1;strokeColor=#000000;exitX=0.5;exitY=1;exitDx=0;exitDy=0;entryX=0.5;entryY=0;entryDx=0;entryDy=0;" edge="1" parent="1" source="q0oahWR5_wieYY4KB26Z-54" target="q0oahWR5_wieYY4KB26Z-57">
          <mxGeometry width="50" height="50" relative="1" as="geometry">
            <mxPoint x="460" y="520" as="sourcePoint" />
            <mxPoint x="510" y="470" as="targetPoint" />
          </mxGeometry>
        </mxCell>
        <mxCell id="q0oahWR5_wieYY4KB26Z-64" value="&lt;font style=&quot;font-size: 24px&quot;&gt;拥有&lt;/font&gt;" style="edgeLabel;html=1;align=center;verticalAlign=middle;resizable=0;points=[];" vertex="1" connectable="0" parent="q0oahWR5_wieYY4KB26Z-59">
          <mxGeometry x="-0.362" y="-1" relative="1" as="geometry">
            <mxPoint x="-17.81" y="10" as="offset" />
          </mxGeometry>
        </mxCell>
        <mxCell id="q0oahWR5_wieYY4KB26Z-60" value="" style="endArrow=classic;html=1;strokeColor=#000000;entryX=0.5;entryY=0;entryDx=0;entryDy=0;" edge="1" parent="1" target="q0oahWR5_wieYY4KB26Z-58">
          <mxGeometry width="50" height="50" relative="1" as="geometry">
            <mxPoint x="560" y="600" as="sourcePoint" />
            <mxPoint x="440" y="670" as="targetPoint" />
          </mxGeometry>
        </mxCell>
        <mxCell id="q0oahWR5_wieYY4KB26Z-65" value="&lt;font style=&quot;font-size: 24px&quot;&gt;拥有&lt;/font&gt;" style="edgeLabel;html=1;align=center;verticalAlign=middle;resizable=0;points=[];" vertex="1" connectable="0" parent="1">
          <mxGeometry x="609.0048101355173" y="628.36871677874" as="geometry" />
        </mxCell>
      </root>
    </mxGraphModel>
  </diagram>
</mxfile>
